# MagicaVoxel @ Ephtracy

# group
o 

# material
mtllib VoxelLightswitch.mtl
usemtl palette

# normals
vn -1 0 0
vn 1 0 0
vn 0 0 1
vn 0 0 -1
vn 0 -1 0
vn 0 1 0

# texcoords
vt 0.337891 0.5
vt 0.958984 0.5

# verts
v -9.3 -0.7 12.8
v -9.3 -0.7 12.5
v -9.3 -0.7 12.3
v -9.3 0.9 12.8
v -9.3 0.9 12.5
v -9.3 0.9 12.3
v -8.8 -0.2 12.3
v -8.8 -0.2 12.2
v -8.8 0.1 12.3
v -8.8 0.1 12.2
v -8.8 0.2 12.3
v -8.8 0.2 12.2
v -8.8 0.6 12.3
v -8.8 0.6 12.2
v -8.5 -0.2 12.3
v -8.5 -0.2 12.2
v -8.5 0.1 12.3
v -8.5 0.1 12.2
v -8.5 0.2 12.3
v -8.5 0.2 12.2
v -8.5 0.6 12.3
v -8.5 0.6 12.2
v -8 -0.7 12.8
v -8 -0.7 12.5
v -8 -0.7 12.3
v -8 0.9 12.8
v -8 0.9 12.5
v -8 0.9 12.3
v -9.3 -0.7 12.8
v -9.3 0.9 12.8
v -8 -0.7 12.8
v -8 0.9 12.8
v -9.3 -0.7 12.3
v -9.3 0.9 12.3
v -8.8 -0.2 12.3
v -8.8 0.1 12.3
v -8.8 0.2 12.3
v -8.8 0.6 12.3
v -8.5 -0.2 12.3
v -8.5 0.1 12.3
v -8.5 0.2 12.3
v -8.5 0.6 12.3
v -8 -0.7 12.3
v -8 0.9 12.3
v -8.8 -0.2 12.2
v -8.8 0.1 12.2
v -8.8 0.2 12.2
v -8.8 0.6 12.2
v -8.5 -0.2 12.2
v -8.5 0.1 12.2
v -8.5 0.2 12.2
v -8.5 0.6 12.2
v -9.3 -0.7 12.8
v -8 -0.7 12.8
v -9.3 -0.7 12.5
v -8 -0.7 12.5
v -9.3 -0.7 12.3
v -8 -0.7 12.3
v -8.8 -0.2 12.3
v -8.5 -0.2 12.3
v -8.8 -0.2 12.2
v -8.5 -0.2 12.2
v -8.8 0.2 12.3
v -8.5 0.2 12.3
v -8.8 0.2 12.2
v -8.5 0.2 12.2
v -8.8 0.1 12.3
v -8.5 0.1 12.3
v -8.8 0.1 12.2
v -8.5 0.1 12.2
v -8.8 0.6 12.3
v -8.5 0.6 12.3
v -8.8 0.6 12.2
v -8.5 0.6 12.2
v -9.3 0.9 12.8
v -8 0.9 12.8
v -9.3 0.9 12.5
v -8 0.9 12.5
v -9.3 0.9 12.3
v -8 0.9 12.3

# faces
f 4/1/1 2/1/1 1/1/1
f 5/2/1 3/2/1 2/2/1
f 5/1/1 2/1/1 4/1/1
f 6/2/1 3/2/1 5/2/1
f 9/2/1 8/2/1 7/2/1
f 10/2/1 8/2/1 9/2/1
f 13/2/1 12/2/1 11/2/1
f 14/2/1 12/2/1 13/2/1
f 15/2/2 16/2/2 17/2/2
f 17/2/2 16/2/2 18/2/2
f 19/2/2 20/2/2 21/2/2
f 21/2/2 20/2/2 22/2/2
f 23/1/2 24/1/2 26/1/2
f 24/2/2 25/2/2 27/2/2
f 26/1/2 24/1/2 27/1/2
f 27/2/2 25/2/2 28/2/2
f 31/1/3 30/1/3 29/1/3
f 32/1/3 30/1/3 31/1/3
f 33/2/4 34/2/4 35/2/4
f 35/2/4 34/2/4 36/2/4
f 36/2/4 34/2/4 37/2/4
f 37/2/4 34/2/4 38/2/4
f 33/2/4 35/2/4 39/2/4
f 36/2/4 37/2/4 40/2/4
f 40/2/4 37/2/4 41/2/4
f 38/2/4 34/2/4 42/2/4
f 40/2/4 41/2/4 43/2/4
f 41/2/4 42/2/4 43/2/4
f 33/2/4 39/2/4 43/2/4
f 39/2/4 40/2/4 43/2/4
f 42/2/4 34/2/4 44/2/4
f 43/2/4 42/2/4 44/2/4
f 45/2/4 46/2/4 49/2/4
f 49/2/4 46/2/4 50/2/4
f 47/2/4 48/2/4 51/2/4
f 51/2/4 48/2/4 52/2/4
f 55/1/5 54/1/5 53/1/5
f 56/1/5 54/1/5 55/1/5
f 57/2/5 56/2/5 55/2/5
f 58/2/5 56/2/5 57/2/5
f 61/2/5 60/2/5 59/2/5
f 62/2/5 60/2/5 61/2/5
f 65/2/5 64/2/5 63/2/5
f 66/2/5 64/2/5 65/2/5
f 67/2/6 68/2/6 69/2/6
f 69/2/6 68/2/6 70/2/6
f 71/2/6 72/2/6 73/2/6
f 73/2/6 72/2/6 74/2/6
f 75/1/6 76/1/6 77/1/6
f 77/1/6 76/1/6 78/1/6
f 77/2/6 78/2/6 79/2/6
f 79/2/6 78/2/6 80/2/6
