# MagicaVoxel @ Ephtracy

# group
o 

# material
mtllib VoxelCorkboard.mtl
usemtl palette

# normals
vn -1 0 0
vn 1 0 0
vn 0 0 1
vn 0 0 -1
vn 0 -1 0
vn 0 1 0

# texcoords
vt 0.150391 0.5
vt 0.201172 0.5
vt 0.337891 0.5
vt 0.365234 0.5
vt 0.521484 0.5
vt 0.533203 0.5
vt 0.736328 0.5
vt 0.775391 0.5
vt 0.962891 0.5
vt 0.986328 0.5
vt 0.990234 0.5

# verts
v -12.7 -9.5 12.8
v -12.7 -9.5 12.7
v -12.7 -9.3 12.8
v -12.7 -9.3 12.7
v -0.1 0.2 7.8
v -0.1 0.2 -7.8
v -0.1 9.2 7.8
v -0.1 9.2 -7.8
v -12.6 -9.5 12.8
v -12.6 -9.5 12.7
v -12.6 -9.3 12.8
v -12.6 -9.3 12.7
v 0.3 0.8 6.8
v 0.3 0.8 -6.9
v 0.3 1.3 -2.8
v 0.3 1.3 -4.7
v 0.3 1.4 3
v 0.3 1.4 0.5
v 0.3 1.6 0.6
v 0.3 1.6 0.5
v 0.3 1.7 0.700001
v 0.3 1.7 0.6
v 0.3 1.8 0.8
v 0.3 1.8 0.700001
v 0.3 1.9 0.900001
v 0.3 1.9 0.8
v 0.3 2.1 0.900001
v 0.3 2.1 0.8
v 0.3 2.2 0.8
v 0.3 2.2 0.700001
v 0.3 2.3 0.700001
v 0.3 2.3 0.6
v 0.3 2.4 0.6
v 0.3 2.4 0.5
v 0.3 2.5 0.5
v 0.3 2.5 0.400001
v 0.3 2.7 3
v 0.3 2.7 0.400001
v 0.3 3.5 5
v 0.3 3.5 2.8
v 0.3 4.4 5
v 0.3 4.4 4.9
v 0.3 4.5 -2.8
v 0.3 4.5 -4.7
v 0.3 4.9 -0.0999994
v 0.3 4.9 -1.2
v 0.3 5.8 4.9
v 0.3 5.8 4.8
v 0.3 6.2 -0.0999994
v 0.3 6.2 -1.2
v 0.3 6.6 4.8
v 0.3 6.6 2.8
v 0.3 8.5 6.8
v 0.3 8.5 -6.9
v 0.4 0.2 7.8
v 0.4 0.2 -7.8
v 0.4 0.8 6.8
v 0.4 0.8 -6.9
v 0.4 1.3 -2.8
v 0.4 1.3 -4.7
v 0.4 1.4 3
v 0.4 1.4 0.5
v 0.4 1.6 2.9
v 0.4 1.6 2.4
v 0.4 1.6 1.8
v 0.4 1.6 1.3
v 0.4 1.6 0.6
v 0.4 1.6 0.5
v 0.4 1.7 2.4
v 0.4 1.7 2
v 0.4 1.7 0.700001
v 0.4 1.7 0.6
v 0.4 1.7 -3.1
v 0.4 1.7 -3.7
v 0.4 1.8 2.9
v 0.4 1.8 2.7
v 0.4 1.8 1.6
v 0.4 1.8 1.3
v 0.4 1.8 0.8
v 0.4 1.8 0.700001
v 0.4 1.8 -3.7
v 0.4 1.8 -4.1
v 0.4 1.8 -4.2
v 0.4 1.8 -4.4
v 0.4 1.9 2.5
v 0.4 1.9 2.3
v 0.4 1.9 2.1
v 0.4 1.9 2
v 0.4 1.9 1.5
v 0.4 1.9 1.3
v 0.4 1.9 0.900001
v 0.4 1.9 0.8
v 0.4 1.9 -3.3
v 0.4 1.9 -3.5
v 0.4 2 2.4
v 0.4 2 2.3
v 0.4 2 2.1
v 0.4 2 2
v 0.4 2 1.3
v 0.4 2 1.2
v 0.4 2 -3.3
v 0.4 2 -3.5
v 0.4 2 -3.7
v 0.4 2 -4.1
v 0.4 2 -4.2
v 0.4 2 -4.4
v 0.4 2.1 1.5
v 0.4 2.1 1.4
v 0.4 2.1 0.900001
v 0.4 2.1 0.8
v 0.4 2.2 2.8
v 0.4 2.2 2.7
v 0.4 2.2 2.5
v 0.4 2.2 2.4
v 0.4 2.2 2.3
v 0.4 2.2 2
v 0.4 2.2 1.8
v 0.4 2.2 1.6
v 0.4 2.2 1.4
v 0.4 2.2 1.2
v 0.4 2.2 0.8
v 0.4 2.2 0.700001
v 0.4 2.2 -3.1
v 0.4 2.2 -3.7
v 0.4 2.3 2
v 0.4 2.3 1.6
v 0.4 2.3 1.2
v 0.4 2.3 1
v 0.4 2.3 0.700001
v 0.4 2.3 0.6
v 0.4 2.3 -4.3
v 0.4 2.3 -4.5
v 0.4 2.4 2.8
v 0.4 2.4 2.3
v 0.4 2.4 0.6
v 0.4 2.4 0.5
v 0.4 2.4 -3
v 0.4 2.4 -3.9
v 0.4 2.5 2
v 0.4 2.5 1.6
v 0.4 2.5 1.2
v 0.4 2.5 1
v 0.4 2.5 0.5
v 0.4 2.5 0.400001
v 0.4 2.5 -3.9
v 0.4 2.5 -4.2
v 0.4 2.5 -4.3
v 0.4 2.5 -4.5
v 0.4 2.6 -3
v 0.4 2.6 -3.7
v 0.4 2.7 3
v 0.4 2.7 0.400001
v 0.4 2.7 -3.7
v 0.4 2.7 -4.2
v 0.4 2.7 -4.3
v 0.4 2.7 -4.5
v 0.4 2.9 -4.3
v 0.4 2.9 -4.5
v 0.4 3 -3.1
v 0.4 3 -3.5
v 0.4 3 -3.8
v 0.4 3 -4.1
v 0.4 3.2 -3.1
v 0.4 3.2 -3.5
v 0.4 3.2 -3.8
v 0.4 3.2 -4.1
v 0.4 3.2 -4.4
v 0.4 3.2 -4.6
v 0.4 3.4 -4.4
v 0.4 3.4 -4.6
v 0.4 3.5 5
v 0.4 3.5 2.8
v 0.4 3.5 -3
v 0.4 3.5 -3.8
v 0.4 3.5 -4
v 0.4 3.5 -4.5
v 0.4 3.6 4.5
v 0.4 3.6 4.3
v 0.4 3.7 -3
v 0.4 3.7 -3.8
v 0.4 3.7 -4
v 0.4 3.7 -4.5
v 0.4 3.8 4.6
v 0.4 3.8 4.5
v 0.4 3.8 4.4
v 0.4 3.8 4.3
v 0.4 3.8 -3.5
v 0.4 3.8 -3.8
v 0.4 3.9 4.4
v 0.4 3.9 3.4
v 0.4 3.9 3.2
v 0.4 3.9 3
v 0.4 3.9 -3.2
v 0.4 3.9 -3.5
v 0.4 3.9 -4.2
v 0.4 3.9 -4.6
v 0.4 4 4.7
v 0.4 4 4.6
v 0.4 4 3.4
v 0.4 4 3.2
v 0.4 4 -3.7
v 0.4 4 -3.8
v 0.4 4.1 3.2
v 0.4 4.1 3
v 0.4 4.1 -3.2
v 0.4 4.1 -3.7
v 0.4 4.1 -4.2
v 0.4 4.1 -4.6
v 0.4 4.4 5
v 0.4 4.4 4.9
v 0.4 4.4 4.7
v 0.4 4.4 4.6
v 0.4 4.4 3.2
v 0.4 4.4 3
v 0.4 4.5 -2.8
v 0.4 4.5 -4.7
v 0.4 4.6 4.7
v 0.4 4.6 4.6
v 0.4 4.6 4.3
v 0.4 4.6 4.1
v 0.4 4.6 3.2
v 0.4 4.6 3
v 0.4 4.7 4.4
v 0.4 4.7 4.3
v 0.4 4.8 4.7
v 0.4 4.8 4.4
v 0.4 4.8 4.1
v 0.4 4.8 4
v 0.4 4.8 3.5
v 0.4 4.8 3.2
v 0.4 4.9 4.4
v 0.4 4.9 4
v 0.4 4.9 3.5
v 0.4 4.9 -0.0999994
v 0.4 4.9 -1.2
v 0.4 5 4.5
v 0.4 5 4.4
v 0.4 5 4
v 0.4 5 3.7
v 0.4 5.2 4.5
v 0.4 5.2 3.7
v 0.4 5.2 3.3
v 0.4 5.2 3.1
v 0.4 5.2 -0.2
v 0.4 5.2 -0.5
v 0.4 5.2 -0.9
v 0.4 5.2 -1.1
v 0.4 5.3 -0.299999
v 0.4 5.3 -0.5
v 0.4 5.3 -0.799999
v 0.4 5.3 -0.9
v 0.4 5.4 3.3
v 0.4 5.4 3.1
v 0.4 5.4 -0.5
v 0.4 5.4 -0.799999
v 0.4 5.4 -1
v 0.4 5.4 -1.1
v 0.4 5.5 4.5
v 0.4 5.5 4.3
v 0.4 5.5 -0.9
v 0.4 5.5 -1
v 0.4 5.6 4.2
v 0.4 5.6 4
v 0.4 5.6 3.8
v 0.4 5.6 3.5
v 0.4 5.6 3.2
v 0.4 5.6 3
v 0.4 5.6 -0.5
v 0.4 5.6 -0.7
v 0.4 5.6 -0.9
v 0.4 5.6 -1
v 0.4 5.7 4.3
v 0.4 5.7 4.2
v 0.4 5.7 -0.299999
v 0.4 5.7 -0.4
v 0.4 5.8 4.9
v 0.4 5.8 4.8
v 0.4 5.8 3.8
v 0.4 5.8 3.5
v 0.4 5.8 -0.4
v 0.4 5.8 -0.7
v 0.4 5.8 -0.9
v 0.4 5.8 -1
v 0.4 5.9 4.5
v 0.4 5.9 4.4
v 0.4 5.9 4.1
v 0.4 5.9 4
v 0.4 5.9 3.2
v 0.4 5.9 3
v 0.4 5.9 -0.7
v 0.4 5.9 -0.9
v 0.4 6 4.4
v 0.4 6 4.3
v 0.4 6 3.4
v 0.4 6 3.2
v 0.4 6.1 4.3
v 0.4 6.1 4.1
v 0.4 6.1 -0.2
v 0.4 6.1 -1.1
v 0.4 6.2 3.4
v 0.4 6.2 3.2
v 0.4 6.2 -0.0999994
v 0.4 6.2 -1.2
v 0.4 6.6 4.8
v 0.4 6.6 2.8
v 0.4 8.5 6.8
v 0.4 8.5 -6.9
v 0.4 9.2 7.8
v 0.4 9.2 -7.8
v -12.7 -9.5 12.8
v -12.7 -9.3 12.8
v -12.6 -9.5 12.8
v -12.6 -9.3 12.8
v -0.1 0.2 7.8
v -0.1 9.2 7.8
v 0.4 0.2 7.8
v 0.4 9.2 7.8
v 0.3 3.5 5
v 0.3 4.4 5
v 0.4 3.5 5
v 0.4 4.4 5
v 0.3 4.4 4.9
v 0.3 5.8 4.9
v 0.4 4.4 4.9
v 0.4 5.8 4.9
v 0.3 5.8 4.8
v 0.3 6.6 4.8
v 0.4 5.8 4.8
v 0.4 6.6 4.8
v 0.3 1.4 3
v 0.3 2.7 3
v 0.4 1.4 3
v 0.4 2.7 3
v 0.3 4.9 -0.0999994
v 0.3 6.2 -0.0999994
v 0.4 4.9 -0.0999994
v 0.4 6.2 -0.0999994
v 0.3 1.3 -2.8
v 0.3 4.5 -2.8
v 0.4 1.3 -2.8
v 0.4 4.5 -2.8
v 0.3 0.8 -6.9
v 0.3 8.5 -6.9
v 0.4 0.8 -6.9
v 0.4 8.5 -6.9
v -12.7 -9.5 12.7
v -12.7 -9.3 12.7
v -12.6 -9.5 12.7
v -12.6 -9.3 12.7
v 0.3 0.8 6.8
v 0.3 8.5 6.8
v 0.4 0.8 6.8
v 0.4 8.5 6.8
v 0.3 3.5 2.8
v 0.3 6.6 2.8
v 0.4 3.5 2.8
v 0.4 6.6 2.8
v 0.3 1.9 0.900001
v 0.3 2.1 0.900001
v 0.4 1.9 0.900001
v 0.4 2.1 0.900001
v 0.3 1.8 0.8
v 0.3 1.9 0.8
v 0.3 2.1 0.8
v 0.3 2.2 0.8
v 0.4 1.8 0.8
v 0.4 1.9 0.8
v 0.4 2.1 0.8
v 0.4 2.2 0.8
v 0.3 1.7 0.700001
v 0.3 1.8 0.700001
v 0.3 2.2 0.700001
v 0.3 2.3 0.700001
v 0.4 1.7 0.700001
v 0.4 1.8 0.700001
v 0.4 2.2 0.700001
v 0.4 2.3 0.700001
v 0.3 1.6 0.6
v 0.3 1.7 0.6
v 0.3 2.3 0.6
v 0.3 2.4 0.6
v 0.4 1.6 0.6
v 0.4 1.7 0.6
v 0.4 2.3 0.6
v 0.4 2.4 0.6
v 0.3 1.4 0.5
v 0.3 1.6 0.5
v 0.3 2.4 0.5
v 0.3 2.5 0.5
v 0.4 1.4 0.5
v 0.4 1.6 0.5
v 0.4 2.4 0.5
v 0.4 2.5 0.5
v 0.3 2.5 0.400001
v 0.3 2.7 0.400001
v 0.4 2.5 0.400001
v 0.4 2.7 0.400001
v 0.3 4.9 -1.2
v 0.3 6.2 -1.2
v 0.4 4.9 -1.2
v 0.4 6.2 -1.2
v 0.3 1.3 -4.7
v 0.3 4.5 -4.7
v 0.4 1.3 -4.7
v 0.4 4.5 -4.7
v -0.1 0.2 -7.8
v -0.1 9.2 -7.8
v 0.4 0.2 -7.8
v 0.4 9.2 -7.8
v -12.7 -9.5 12.8
v -12.6 -9.5 12.8
v -12.7 -9.5 12.7
v -12.6 -9.5 12.7
v -0.1 0.2 7.8
v 0.4 0.2 7.8
v -0.1 0.2 -7.8
v 0.4 0.2 -7.8
v 0.3 1.3 -2.8
v 0.4 1.3 -2.8
v 0.3 1.3 -4.7
v 0.4 1.3 -4.7
v 0.3 1.4 3
v 0.4 1.4 3
v 0.3 1.4 0.5
v 0.4 1.4 0.5
v 0.3 2.1 0.900001
v 0.4 2.1 0.900001
v 0.3 2.1 0.8
v 0.4 2.1 0.8
v 0.3 2.2 0.8
v 0.4 2.2 0.8
v 0.3 2.2 0.700001
v 0.4 2.2 0.700001
v 0.3 2.3 0.700001
v 0.4 2.3 0.700001
v 0.3 2.3 0.6
v 0.4 2.3 0.6
v 0.3 2.4 0.6
v 0.4 2.4 0.6
v 0.3 2.4 0.5
v 0.4 2.4 0.5
v 0.3 2.5 0.5
v 0.4 2.5 0.5
v 0.3 2.5 0.400001
v 0.4 2.5 0.400001
v 0.3 3.5 5
v 0.4 3.5 5
v 0.3 3.5 2.8
v 0.4 3.5 2.8
v 0.3 4.9 -0.0999994
v 0.4 4.9 -0.0999994
v 0.3 4.9 -1.2
v 0.4 4.9 -1.2
v 0.3 8.5 6.8
v 0.4 8.5 6.8
v 0.3 8.5 -6.9
v 0.4 8.5 -6.9
v -12.7 -9.3 12.8
v -12.6 -9.3 12.8
v -12.7 -9.3 12.7
v -12.6 -9.3 12.7
v 0.3 0.8 6.8
v 0.4 0.8 6.8
v 0.3 0.8 -6.9
v 0.4 0.8 -6.9
v 0.3 1.6 0.6
v 0.4 1.6 0.6
v 0.3 1.6 0.5
v 0.4 1.6 0.5
v 0.3 1.7 0.700001
v 0.4 1.7 0.700001
v 0.3 1.7 0.6
v 0.4 1.7 0.6
v 0.3 1.8 0.8
v 0.4 1.8 0.8
v 0.3 1.8 0.700001
v 0.4 1.8 0.700001
v 0.3 1.9 0.900001
v 0.4 1.9 0.900001
v 0.3 1.9 0.8
v 0.4 1.9 0.8
v 0.3 2.7 3
v 0.4 2.7 3
v 0.3 2.7 0.400001
v 0.4 2.7 0.400001
v 0.3 4.4 5
v 0.4 4.4 5
v 0.3 4.4 4.9
v 0.4 4.4 4.9
v 0.3 4.5 -2.8
v 0.4 4.5 -2.8
v 0.3 4.5 -4.7
v 0.4 4.5 -4.7
v 0.3 5.8 4.9
v 0.4 5.8 4.9
v 0.3 5.8 4.8
v 0.4 5.8 4.8
v 0.3 6.2 -0.0999994
v 0.4 6.2 -0.0999994
v 0.3 6.2 -1.2
v 0.4 6.2 -1.2
v 0.3 6.6 4.8
v 0.4 6.6 4.8
v 0.3 6.6 2.8
v 0.4 6.6 2.8
v -0.1 9.2 7.8
v 0.4 9.2 7.8
v -0.1 9.2 -7.8
v 0.4 9.2 -7.8

# faces
f 3/3/1 2/3/1 1/3/1
f 4/3/1 2/3/1 3/3/1
f 7/6/1 6/6/1 5/6/1
f 8/6/1 6/6/1 7/6/1
f 9/3/2 10/3/2 11/3/2
f 11/3/2 10/3/2 12/3/2
f 13/2/2 14/2/2 15/2/2
f 15/2/2 14/2/2 16/2/2
f 13/2/2 15/2/2 17/2/2
f 17/2/2 15/2/2 18/2/2
f 18/2/2 15/2/2 20/2/2
f 19/2/2 20/2/2 22/2/2
f 21/2/2 22/2/2 24/2/2
f 23/2/2 24/2/2 26/2/2
f 25/2/2 26/2/2 27/2/2
f 26/2/2 24/2/2 28/2/2
f 27/2/2 26/2/2 28/2/2
f 28/2/2 24/2/2 29/2/2
f 24/2/2 22/2/2 30/2/2
f 29/2/2 24/2/2 30/2/2
f 30/2/2 22/2/2 31/2/2
f 22/2/2 20/2/2 32/2/2
f 31/2/2 22/2/2 32/2/2
f 32/2/2 20/2/2 33/2/2
f 20/2/2 15/2/2 34/2/2
f 33/2/2 20/2/2 34/2/2
f 34/2/2 15/2/2 35/2/2
f 35/2/2 15/2/2 36/2/2
f 13/2/2 17/2/2 37/2/2
f 36/2/2 15/2/2 38/2/2
f 13/2/2 37/2/2 39/2/2
f 37/2/2 38/2/2 39/2/2
f 39/2/2 38/2/2 40/2/2
f 13/2/2 39/2/2 41/2/2
f 38/2/2 15/2/2 43/2/2
f 40/2/2 38/2/2 43/2/2
f 16/2/2 14/2/2 44/2/2
f 40/2/2 43/2/2 45/2/2
f 43/2/2 44/2/2 45/2/2
f 45/2/2 44/2/2 46/2/2
f 41/2/2 42/2/2 47/2/2
f 40/2/2 45/2/2 49/2/2
f 46/2/2 44/2/2 50/2/2
f 47/2/2 48/2/2 51/2/2
f 40/2/2 49/2/2 52/2/2
f 49/2/2 50/2/2 52/2/2
f 47/2/2 51/2/2 53/2/2
f 51/2/2 52/2/2 53/2/2
f 13/2/2 41/2/2 53/2/2
f 41/2/2 47/2/2 53/2/2
f 44/2/2 14/2/2 54/2/2
f 53/2/2 52/2/2 54/2/2
f 52/2/2 50/2/2 54/2/2
f 50/2/2 44/2/2 54/2/2
f 55/6/2 56/6/2 57/6/2
f 57/6/2 56/6/2 58/6/2
f 61/1/2 62/1/2 63/1/2
f 63/1/2 62/1/2 64/1/2
f 64/1/2 62/1/2 65/1/2
f 65/1/2 62/1/2 66/1/2
f 66/1/2 62/1/2 67/1/2
f 67/1/2 62/1/2 68/1/2
f 63/8/2 64/8/2 69/8/2
f 64/1/2 65/1/2 69/1/2
f 69/1/2 65/1/2 70/1/2
f 66/1/2 67/1/2 71/1/2
f 71/1/2 67/1/2 72/1/2
f 59/9/2 60/9/2 73/9/2
f 73/9/2 60/9/2 74/9/2
f 61/1/2 63/1/2 75/1/2
f 63/8/2 69/8/2 75/8/2
f 69/8/2 70/8/2 75/8/2
f 75/8/2 70/8/2 76/8/2
f 65/8/2 66/8/2 77/8/2
f 66/1/2 71/1/2 78/1/2
f 77/8/2 66/8/2 78/8/2
f 78/1/2 71/1/2 79/1/2
f 79/1/2 71/1/2 80/1/2
f 74/9/2 60/9/2 81/9/2
f 73/10/2 74/10/2 81/10/2
f 81/9/2 60/9/2 82/9/2
f 82/9/2 60/9/2 83/9/2
f 83/9/2 60/9/2 84/9/2
f 76/8/2 70/8/2 85/8/2
f 85/8/2 70/8/2 86/8/2
f 86/8/2 70/8/2 87/8/2
f 70/1/2 65/1/2 88/1/2
f 87/8/2 70/8/2 88/8/2
f 78/1/2 79/1/2 89/1/2
f 77/1/2 78/1/2 89/1/2
f 89/1/2 79/1/2 90/1/2
f 90/1/2 79/1/2 91/1/2
f 91/1/2 79/1/2 92/1/2
f 73/10/2 81/10/2 93/10/2
f 81/10/2 82/10/2 93/10/2
f 93/10/2 82/10/2 94/10/2
f 85/1/2 86/1/2 95/1/2
f 86/8/2 87/8/2 96/8/2
f 95/1/2 86/1/2 96/1/2
f 87/1/2 88/1/2 97/1/2
f 96/8/2 87/8/2 97/8/2
f 88/1/2 65/1/2 98/1/2
f 97/1/2 88/1/2 98/1/2
f 90/1/2 91/1/2 99/1/2
f 89/8/2 90/8/2 99/8/2
f 99/1/2 91/1/2 100/1/2
f 93/9/2 94/9/2 101/9/2
f 73/10/2 93/10/2 101/10/2
f 94/10/2 82/10/2 102/10/2
f 101/9/2 94/9/2 102/9/2
f 102/10/2 82/10/2 103/10/2
f 82/9/2 83/9/2 104/9/2
f 103/10/2 82/10/2 104/10/2
f 83/10/2 84/10/2 105/10/2
f 104/9/2 83/9/2 105/9/2
f 84/9/2 60/9/2 106/9/2
f 105/10/2 84/10/2 106/10/2
f 77/1/2 89/1/2 107/1/2
f 99/8/2 100/8/2 107/8/2
f 89/8/2 99/8/2 107/8/2
f 107/8/2 100/8/2 108/8/2
f 100/1/2 91/1/2 109/1/2
f 75/1/2 76/1/2 111/1/2
f 76/8/2 85/8/2 112/8/2
f 111/1/2 76/1/2 112/1/2
f 85/1/2 95/1/2 113/1/2
f 112/8/2 85/8/2 113/8/2
f 96/8/2 97/8/2 114/8/2
f 113/1/2 95/1/2 114/1/2
f 95/8/2 96/8/2 114/8/2
f 97/8/2 98/8/2 114/8/2
f 114/8/2 98/8/2 115/8/2
f 98/1/2 65/1/2 116/1/2
f 115/8/2 98/8/2 116/8/2
f 65/8/2 77/8/2 117/8/2
f 116/1/2 65/1/2 117/1/2
f 107/1/2 108/1/2 118/1/2
f 117/8/2 77/8/2 118/8/2
f 77/1/2 107/1/2 118/1/2
f 108/8/2 100/8/2 119/8/2
f 118/1/2 108/1/2 119/1/2
f 109/1/2 110/1/2 120/1/2
f 119/8/2 100/8/2 120/8/2
f 100/1/2 109/1/2 120/1/2
f 120/1/2 110/1/2 121/1/2
f 59/9/2 73/9/2 123/9/2
f 73/10/2 101/10/2 123/10/2
f 102/10/2 103/10/2 123/10/2
f 101/10/2 102/10/2 123/10/2
f 104/9/2 105/9/2 124/9/2
f 123/10/2 103/10/2 124/10/2
f 103/9/2 104/9/2 124/9/2
f 105/9/2 106/9/2 124/9/2
f 115/1/2 116/1/2 125/1/2
f 116/1/2 117/1/2 125/1/2
f 121/1/2 122/1/2 125/1/2
f 118/1/2 119/1/2 125/1/2
f 117/1/2 118/1/2 125/1/2
f 120/1/2 121/1/2 125/1/2
f 119/1/2 120/1/2 125/1/2
f 125/1/2 122/1/2 126/1/2
f 126/1/2 122/1/2 127/1/2
f 127/1/2 122/1/2 128/1/2
f 128/1/2 122/1/2 129/1/2
f 124/9/2 106/9/2 131/9/2
f 123/9/2 124/9/2 131/9/2
f 106/9/2 60/9/2 132/9/2
f 131/9/2 106/9/2 132/9/2
f 112/8/2 113/8/2 133/8/2
f 111/8/2 112/8/2 133/8/2
f 75/1/2 111/1/2 133/1/2
f 113/8/2 114/8/2 133/8/2
f 114/8/2 115/8/2 133/8/2
f 115/1/2 125/1/2 134/1/2
f 133/8/2 115/8/2 134/8/2
f 129/1/2 130/1/2 135/1/2
f 128/1/2 129/1/2 135/1/2
f 59/9/2 123/9/2 137/9/2
f 123/9/2 131/9/2 137/9/2
f 137/9/2 131/9/2 138/9/2
f 134/1/2 125/1/2 139/1/2
f 133/1/2 134/1/2 139/1/2
f 125/8/2 126/8/2 139/8/2
f 126/1/2 127/1/2 140/1/2
f 139/8/2 126/8/2 140/8/2
f 127/8/2 128/8/2 141/8/2
f 140/1/2 127/1/2 141/1/2
f 135/1/2 136/1/2 142/1/2
f 141/8/2 128/8/2 142/8/2
f 128/1/2 135/1/2 142/1/2
f 142/1/2 136/1/2 143/1/2
f 138/9/2 131/9/2 145/9/2
f 137/10/2 138/10/2 145/10/2
f 145/9/2 131/9/2 146/9/2
f 131/10/2 132/10/2 147/10/2
f 146/9/2 131/9/2 147/9/2
f 132/9/2 60/9/2 148/9/2
f 147/10/2 132/10/2 148/10/2
f 145/10/2 146/10/2 149/10/2
f 59/9/2 137/9/2 149/9/2
f 137/10/2 145/10/2 149/10/2
f 149/10/2 146/10/2 150/10/2
f 140/1/2 141/1/2 151/1/2
f 143/1/2 144/1/2 151/1/2
f 142/1/2 143/1/2 151/1/2
f 75/1/2 133/1/2 151/1/2
f 141/1/2 142/1/2 151/1/2
f 61/1/2 75/1/2 151/1/2
f 133/1/2 139/1/2 151/1/2
f 139/1/2 140/1/2 151/1/2
f 151/1/2 144/1/2 152/1/2
f 150/10/2 146/10/2 153/10/2
f 149/9/2 150/9/2 153/9/2
f 146/9/2 147/9/2 154/9/2
f 153/10/2 146/10/2 154/10/2
f 147/9/2 148/9/2 154/9/2
f 154/9/2 148/9/2 155/9/2
f 148/9/2 60/9/2 156/9/2
f 155/9/2 148/9/2 156/9/2
f 154/9/2 155/9/2 157/9/2
f 155/10/2 156/10/2 157/10/2
f 153/9/2 154/9/2 157/9/2
f 156/9/2 60/9/2 158/9/2
f 157/10/2 156/10/2 158/10/2
f 153/9/2 157/9/2 159/9/2
f 149/9/2 153/9/2 159/9/2
f 157/9/2 158/9/2 159/9/2
f 159/9/2 158/9/2 160/9/2
f 160/9/2 158/9/2 161/9/2
f 161/9/2 158/9/2 162/9/2
f 149/9/2 159/9/2 163/9/2
f 159/10/2 160/10/2 163/10/2
f 160/9/2 161/9/2 164/9/2
f 163/10/2 160/10/2 164/10/2
f 161/10/2 162/10/2 165/10/2
f 164/9/2 161/9/2 165/9/2
f 162/9/2 158/9/2 166/9/2
f 165/10/2 162/10/2 166/10/2
f 166/9/2 158/9/2 167/9/2
f 158/9/2 60/9/2 168/9/2
f 167/9/2 158/9/2 168/9/2
f 166/9/2 167/9/2 169/9/2
f 164/9/2 165/9/2 169/9/2
f 167/10/2 168/10/2 169/10/2
f 165/9/2 166/9/2 169/9/2
f 163/9/2 164/9/2 169/9/2
f 168/9/2 60/9/2 170/9/2
f 169/10/2 168/10/2 170/10/2
f 163/9/2 169/9/2 173/9/2
f 59/9/2 149/9/2 173/9/2
f 149/9/2 163/9/2 173/9/2
f 169/9/2 170/9/2 173/9/2
f 173/9/2 170/9/2 174/9/2
f 174/9/2 170/9/2 175/9/2
f 175/9/2 170/9/2 176/9/2
f 171/5/2 172/5/2 177/5/2
f 177/5/2 172/5/2 178/5/2
f 59/9/2 173/9/2 179/9/2
f 173/10/2 174/10/2 179/10/2
f 174/9/2 175/9/2 180/9/2
f 179/10/2 174/10/2 180/10/2
f 175/10/2 176/10/2 181/10/2
f 180/9/2 175/9/2 181/9/2
f 176/9/2 170/9/2 182/9/2
f 181/10/2 176/10/2 182/10/2
f 171/5/2 177/5/2 183/5/2
f 177/9/2 178/9/2 184/9/2
f 183/5/2 177/5/2 184/5/2
f 184/9/2 178/9/2 185/9/2
f 178/5/2 172/5/2 186/5/2
f 185/9/2 178/9/2 186/9/2
f 180/9/2 181/9/2 187/9/2
f 179/9/2 180/9/2 187/9/2
f 181/9/2 182/9/2 187/9/2
f 187/9/2 182/9/2 188/9/2
f 184/9/2 185/9/2 189/9/2
f 185/5/2 186/5/2 189/5/2
f 183/9/2 184/9/2 189/9/2
f 186/5/2 172/5/2 190/5/2
f 189/5/2 186/5/2 190/5/2
f 190/5/2 172/5/2 191/5/2
f 191/5/2 172/5/2 192/5/2
f 179/9/2 187/9/2 193/9/2
f 187/10/2 188/10/2 194/10/2
f 193/9/2 187/9/2 194/9/2
f 188/9/2 182/9/2 195/9/2
f 170/9/2 60/9/2 196/9/2
f 195/9/2 182/9/2 196/9/2
f 182/9/2 170/9/2 196/9/2
f 171/5/2 183/5/2 197/5/2
f 183/9/2 189/9/2 198/9/2
f 197/5/2 183/5/2 198/5/2
f 189/9/2 190/9/2 198/9/2
f 190/5/2 191/5/2 199/5/2
f 198/9/2 190/9/2 199/9/2
f 191/9/2 192/9/2 200/9/2
f 199/5/2 191/5/2 200/5/2
f 194/10/2 188/10/2 201/10/2
f 193/10/2 194/10/2 201/10/2
f 188/9/2 195/9/2 202/9/2
f 201/10/2 188/10/2 202/10/2
f 200/9/2 192/9/2 203/9/2
f 199/9/2 200/9/2 203/9/2
f 197/9/2 198/9/2 203/9/2
f 198/9/2 199/9/2 203/9/2
f 192/5/2 172/5/2 204/5/2
f 203/9/2 192/9/2 204/9/2
f 193/10/2 201/10/2 205/10/2
f 179/9/2 193/9/2 205/9/2
f 201/9/2 202/9/2 206/9/2
f 205/10/2 201/10/2 206/10/2
f 202/9/2 195/9/2 207/9/2
f 206/9/2 202/9/2 207/9/2
f 195/10/2 196/10/2 207/10/2
f 196/9/2 60/9/2 208/9/2
f 207/10/2 196/10/2 208/10/2
f 171/5/2 197/5/2 209/5/2
f 209/5/2 197/5/2 210/5/2
f 197/9/2 203/9/2 211/9/2
f 210/5/2 197/5/2 211/5/2
f 211/9/2 203/9/2 212/9/2
f 203/5/2 204/5/2 213/5/2
f 212/9/2 203/9/2 213/9/2
f 204/5/2 172/5/2 214/5/2
f 213/5/2 204/5/2 214/5/2
f 205/9/2 206/9/2 215/9/2
f 206/9/2 207/9/2 215/9/2
f 59/9/2 179/9/2 215/9/2
f 179/9/2 205/9/2 215/9/2
f 207/9/2 208/9/2 215/9/2
f 208/9/2 60/9/2 216/9/2
f 215/9/2 208/9/2 216/9/2
f 210/5/2 211/5/2 217/5/2
f 211/5/2 212/5/2 217/5/2
f 212/9/2 213/9/2 218/9/2
f 217/5/2 212/5/2 218/5/2
f 213/9/2 214/9/2 218/9/2
f 218/9/2 214/9/2 219/9/2
f 219/9/2 214/9/2 220/9/2
f 220/9/2 214/9/2 221/9/2
f 214/5/2 172/5/2 222/5/2
f 221/9/2 214/9/2 222/9/2
f 217/9/2 218/9/2 223/9/2
f 218/9/2 219/9/2 223/9/2
f 219/5/2 220/5/2 224/5/2
f 223/9/2 219/9/2 224/9/2
f 210/5/2 217/5/2 225/5/2
f 217/9/2 223/9/2 225/9/2
f 223/5/2 224/5/2 226/5/2
f 225/9/2 223/9/2 226/9/2
f 224/5/2 220/5/2 227/5/2
f 226/5/2 224/5/2 227/5/2
f 220/9/2 221/9/2 227/9/2
f 227/9/2 221/9/2 228/9/2
f 228/9/2 221/9/2 229/9/2
f 221/5/2 222/5/2 230/5/2
f 229/9/2 221/9/2 230/9/2
f 225/5/2 226/5/2 231/5/2
f 226/5/2 227/5/2 231/5/2
f 227/5/2 228/5/2 231/5/2
f 228/9/2 229/9/2 232/9/2
f 231/5/2 228/5/2 232/5/2
f 229/5/2 230/5/2 233/5/2
f 232/9/2 229/9/2 233/9/2
f 225/5/2 231/5/2 236/5/2
f 231/9/2 232/9/2 237/9/2
f 236/5/2 231/5/2 237/5/2
f 232/5/2 233/5/2 238/5/2
f 237/9/2 232/9/2 238/9/2
f 238/5/2 233/5/2 239/5/2
f 225/5/2 236/5/2 240/5/2
f 236/9/2 237/9/2 240/9/2
f 238/9/2 239/9/2 240/9/2
f 237/9/2 238/9/2 240/9/2
f 239/5/2 233/5/2 241/5/2
f 240/9/2 239/9/2 241/9/2
f 233/5/2 230/5/2 242/5/2
f 241/5/2 233/5/2 242/5/2
f 230/5/2 222/5/2 243/5/2
f 242/5/2 230/5/2 243/5/2
f 234/11/2 235/11/2 244/11/2
f 244/11/2 235/11/2 245/11/2
f 245/11/2 235/11/2 246/11/2
f 246/11/2 235/11/2 247/11/2
f 244/9/2 245/9/2 248/9/2
f 245/4/2 246/4/2 249/4/2
f 248/9/2 245/9/2 249/9/2
f 249/4/2 246/4/2 250/4/2
f 246/7/2 247/7/2 251/7/2
f 250/4/2 246/4/2 251/4/2
f 241/5/2 242/5/2 252/5/2
f 240/5/2 241/5/2 252/5/2
f 242/9/2 243/9/2 252/9/2
f 243/5/2 222/5/2 253/5/2
f 252/9/2 243/9/2 253/9/2
f 248/4/2 249/4/2 254/4/2
f 249/4/2 250/4/2 254/4/2
f 250/7/2 251/7/2 255/7/2
f 254/4/2 250/4/2 255/4/2
f 251/7/2 247/7/2 256/7/2
f 255/7/2 251/7/2 256/7/2
f 247/11/2 235/11/2 257/11/2
f 256/7/2 247/7/2 257/7/2
f 240/5/2 252/5/2 258/5/2
f 225/5/2 240/5/2 258/5/2
f 252/5/2 253/5/2 258/5/2
f 258/5/2 253/5/2 259/5/2
f 254/7/2 255/7/2 260/7/2
f 255/7/2 256/7/2 260/7/2
f 256/9/2 257/9/2 261/9/2
f 260/7/2 256/7/2 261/7/2
f 259/5/2 253/5/2 262/5/2
f 262/5/2 253/5/2 263/5/2
f 263/5/2 253/5/2 264/5/2
f 264/5/2 253/5/2 265/5/2
f 265/5/2 253/5/2 266/5/2
f 222/5/2 172/5/2 267/5/2
f 266/5/2 253/5/2 267/5/2
f 253/5/2 222/5/2 267/5/2
f 254/7/2 260/7/2 268/7/2
f 248/4/2 254/4/2 268/4/2
f 268/7/2 260/7/2 269/7/2
f 260/9/2 261/9/2 270/9/2
f 269/7/2 260/7/2 270/7/2
f 261/9/2 257/9/2 271/9/2
f 270/9/2 261/9/2 271/9/2
f 258/9/2 259/9/2 272/9/2
f 259/5/2 262/5/2 272/5/2
f 262/9/2 263/9/2 273/9/2
f 272/5/2 262/5/2 273/5/2
f 244/9/2 248/9/2 274/9/2
f 268/4/2 269/4/2 274/4/2
f 248/4/2 268/4/2 274/4/2
f 274/4/2 269/4/2 275/4/2
f 210/5/2 225/5/2 276/5/2
f 225/5/2 258/5/2 276/5/2
f 276/5/2 258/5/2 277/5/2
f 264/9/2 265/9/2 278/9/2
f 263/5/2 264/5/2 278/5/2
f 265/5/2 266/5/2 279/5/2
f 278/9/2 265/9/2 279/9/2
f 275/4/2 269/4/2 280/4/2
f 274/9/2 275/9/2 280/9/2
f 269/7/2 270/7/2 281/7/2
f 280/4/2 269/4/2 281/4/2
f 270/7/2 271/7/2 281/7/2
f 281/7/2 271/7/2 282/7/2
f 271/9/2 257/9/2 283/9/2
f 282/7/2 271/7/2 283/7/2
f 277/5/2 258/5/2 284/5/2
f 272/9/2 273/9/2 284/9/2
f 258/9/2 272/9/2 284/9/2
f 284/9/2 273/9/2 285/9/2
f 273/9/2 263/9/2 286/9/2
f 285/9/2 273/9/2 286/9/2
f 263/5/2 278/5/2 287/5/2
f 286/9/2 263/9/2 287/9/2
f 278/5/2 279/5/2 287/5/2
f 279/5/2 266/5/2 288/5/2
f 287/5/2 279/5/2 288/5/2
f 266/9/2 267/9/2 288/9/2
f 267/5/2 172/5/2 289/5/2
f 288/9/2 267/9/2 289/9/2
f 281/7/2 282/7/2 290/7/2
f 280/9/2 281/9/2 290/9/2
f 282/9/2 283/9/2 291/9/2
f 290/7/2 282/7/2 291/7/2
f 285/9/2 286/9/2 292/9/2
f 284/5/2 285/5/2 292/5/2
f 292/9/2 286/9/2 293/9/2
f 286/5/2 287/5/2 294/5/2
f 287/5/2 288/5/2 294/5/2
f 288/5/2 289/5/2 294/5/2
f 294/5/2 289/5/2 295/5/2
f 293/9/2 286/9/2 296/9/2
f 292/5/2 293/5/2 296/5/2
f 286/5/2 294/5/2 297/5/2
f 296/9/2 286/9/2 297/9/2
f 274/9/2 280/9/2 298/9/2
f 244/9/2 274/9/2 298/9/2
f 234/11/2 244/11/2 298/11/2
f 290/9/2 291/9/2 298/9/2
f 280/9/2 290/9/2 298/9/2
f 291/9/2 283/9/2 299/9/2
f 298/9/2 291/9/2 299/9/2
f 257/11/2 235/11/2 299/11/2
f 283/9/2 257/9/2 299/9/2
f 297/5/2 294/5/2 300/5/2
f 294/9/2 295/9/2 300/9/2
f 296/5/2 297/5/2 300/5/2
f 295/5/2 289/5/2 301/5/2
f 300/9/2 295/9/2 301/9/2
f 234/11/2 298/11/2 302/11/2
f 298/11/2 299/11/2 302/11/2
f 299/11/2 235/11/2 303/11/2
f 302/11/2 299/11/2 303/11/2
f 296/5/2 300/5/2 304/5/2
f 300/5/2 301/5/2 304/5/2
f 284/5/2 292/5/2 304/5/2
f 292/5/2 296/5/2 304/5/2
f 277/5/2 284/5/2 304/5/2
f 301/5/2 289/5/2 305/5/2
f 304/5/2 301/5/2 305/5/2
f 289/5/2 172/5/2 305/5/2
f 55/6/2 57/6/2 306/6/2
f 58/6/2 56/6/2 307/6/2
f 55/6/2 306/6/2 308/6/2
f 306/6/2 307/6/2 308/6/2
f 307/6/2 56/6/2 309/6/2
f 308/6/2 307/6/2 309/6/2
f 312/3/3 311/3/3 310/3/3
f 313/3/3 311/3/3 312/3/3
f 316/6/3 315/6/3 314/6/3
f 317/6/3 315/6/3 316/6/3
f 320/5/3 319/5/3 318/5/3
f 321/5/3 319/5/3 320/5/3
f 324/5/3 323/5/3 322/5/3
f 325/5/3 323/5/3 324/5/3
f 328/5/3 327/5/3 326/5/3
f 329/5/3 327/5/3 328/5/3
f 332/1/3 331/1/3 330/1/3
f 333/1/3 331/1/3 332/1/3
f 336/11/3 335/11/3 334/11/3
f 337/11/3 335/11/3 336/11/3
f 340/9/3 339/9/3 338/9/3
f 341/9/3 339/9/3 340/9/3
f 344/6/3 343/6/3 342/6/3
f 345/6/3 343/6/3 344/6/3
f 346/3/4 347/3/4 348/3/4
f 348/3/4 347/3/4 349/3/4
f 350/6/4 351/6/4 352/6/4
f 352/6/4 351/6/4 353/6/4
f 354/5/4 355/5/4 356/5/4
f 356/5/4 355/5/4 357/5/4
f 358/1/4 359/1/4 360/1/4
f 360/1/4 359/1/4 361/1/4
f 362/1/4 363/1/4 366/1/4
f 366/1/4 363/1/4 367/1/4
f 364/1/4 365/1/4 368/1/4
f 368/1/4 365/1/4 369/1/4
f 370/1/4 371/1/4 374/1/4
f 374/1/4 371/1/4 375/1/4
f 372/1/4 373/1/4 376/1/4
f 376/1/4 373/1/4 377/1/4
f 378/1/4 379/1/4 382/1/4
f 382/1/4 379/1/4 383/1/4
f 380/1/4 381/1/4 384/1/4
f 384/1/4 381/1/4 385/1/4
f 386/1/4 387/1/4 390/1/4
f 390/1/4 387/1/4 391/1/4
f 388/1/4 389/1/4 392/1/4
f 392/1/4 389/1/4 393/1/4
f 394/1/4 395/1/4 396/1/4
f 396/1/4 395/1/4 397/1/4
f 398/11/4 399/11/4 400/11/4
f 400/11/4 399/11/4 401/11/4
f 402/9/4 403/9/4 404/9/4
f 404/9/4 403/9/4 405/9/4
f 406/6/4 407/6/4 408/6/4
f 408/6/4 407/6/4 409/6/4
f 412/3/5 411/3/5 410/3/5
f 413/3/5 411/3/5 412/3/5
f 416/6/5 415/6/5 414/6/5
f 417/6/5 415/6/5 416/6/5
f 420/9/5 419/9/5 418/9/5
f 421/9/5 419/9/5 420/9/5
f 424/1/5 423/1/5 422/1/5
f 425/1/5 423/1/5 424/1/5
f 428/1/5 427/1/5 426/1/5
f 429/1/5 427/1/5 428/1/5
f 432/1/5 431/1/5 430/1/5
f 433/1/5 431/1/5 432/1/5
f 436/1/5 435/1/5 434/1/5
f 437/1/5 435/1/5 436/1/5
f 440/1/5 439/1/5 438/1/5
f 441/1/5 439/1/5 440/1/5
f 444/1/5 443/1/5 442/1/5
f 445/1/5 443/1/5 444/1/5
f 448/5/5 447/5/5 446/5/5
f 449/5/5 447/5/5 448/5/5
f 452/11/5 451/11/5 450/11/5
f 453/11/5 451/11/5 452/11/5
f 456/6/5 455/6/5 454/6/5
f 457/6/5 455/6/5 456/6/5
f 458/3/6 459/3/6 460/3/6
f 460/3/6 459/3/6 461/3/6
f 462/6/6 463/6/6 464/6/6
f 464/6/6 463/6/6 465/6/6
f 466/1/6 467/1/6 468/1/6
f 468/1/6 467/1/6 469/1/6
f 470/1/6 471/1/6 472/1/6
f 472/1/6 471/1/6 473/1/6
f 474/1/6 475/1/6 476/1/6
f 476/1/6 475/1/6 477/1/6
f 478/1/6 479/1/6 480/1/6
f 480/1/6 479/1/6 481/1/6
f 482/1/6 483/1/6 484/1/6
f 484/1/6 483/1/6 485/1/6
f 486/5/6 487/5/6 488/5/6
f 488/5/6 487/5/6 489/5/6
f 490/9/6 491/9/6 492/9/6
f 492/9/6 491/9/6 493/9/6
f 494/5/6 495/5/6 496/5/6
f 496/5/6 495/5/6 497/5/6
f 498/11/6 499/11/6 500/11/6
f 500/11/6 499/11/6 501/11/6
f 502/5/6 503/5/6 504/5/6
f 504/5/6 503/5/6 505/5/6
f 506/6/6 507/6/6 508/6/6
f 508/6/6 507/6/6 509/6/6
