# MagicaVoxel @ Ephtracy

# group
o 

# material
mtllib VoxelOoTPoster.mtl
usemtl palette

# normals
vn -1 0 0
vn 1 0 0
vn 0 0 1
vn 0 0 -1
vn 0 -1 0
vn 0 1 0

# texcoords
vt 0.00585938 0.5
vt 0.173828 0.5
vt 0.201172 0.5
vt 0.255859 0.5
vt 0.337891 0.5
vt 0.369141 0.5
vt 0.626953 0.5
vt 0.650391 0.5
vt 0.806641 0.5
vt 0.857422 0.5
vt 0.955078 0.5
vt 0.958984 0.5
vt 0.990234 0.5

# verts
v 12.4 0.2 -3.2
v 12.4 0.2 -9.4
v 12.4 0.5 -3.5
v 12.4 0.5 -9.1
v 12.4 0.9 -4
v 12.4 0.9 -8.7
v 12.4 1 -4.1
v 12.4 1 -8.6
v 12.4 1.6 -8.4
v 12.4 1.6 -8.6
v 12.4 1.7 -8.2
v 12.4 1.7 -8.4
v 12.4 1.8 -8
v 12.4 1.8 -8.2
v 12.4 1.9 -5.3
v 12.4 1.9 -5.5
v 12.4 1.9 -7.9
v 12.4 1.9 -8
v 12.4 2 -5.2
v 12.4 2 -5.3
v 12.4 2 -5.5
v 12.4 2 -6.2
v 12.4 2 -6.9
v 12.4 2 -7.3
v 12.4 2 -7.6
v 12.4 2 -7.9
v 12.4 2.1 -5.1
v 12.4 2.1 -5.2
v 12.4 2.1 -6.2
v 12.4 2.1 -6.9
v 12.4 2.1 -7.3
v 12.4 2.1 -7.6
v 12.4 2.2 -4.2
v 12.4 2.2 -5.1
v 12.4 2.3 -4.1
v 12.4 2.3 -4.2
v 12.4 3 -8.4
v 12.4 3 -8.6
v 12.4 3.1 -8.2
v 12.4 3.1 -8.4
v 12.4 3.2 -7.9
v 12.4 3.2 -8.2
v 12.4 3.3 -7.7
v 12.4 3.3 -7.9
v 12.4 3.4 -7.5
v 12.4 3.4 -7.7
v 12.4 3.5 -6.8
v 12.4 3.5 -7.5
v 12.4 3.6 -5.7
v 12.4 3.6 -6.8
v 12.4 3.6 -8.1
v 12.4 3.6 -8.6
v 12.4 3.7 -5.1
v 12.4 3.7 -5.7
v 12.4 3.7 -6
v 12.4 3.7 -6.1
v 12.4 3.7 -6.5
v 12.4 3.7 -6.6
v 12.4 3.7 -6.7
v 12.4 3.7 -6.8
v 12.4 3.7 -7.3
v 12.4 3.7 -8.1
v 12.4 3.8 -5
v 12.4 3.8 -5.1
v 12.4 3.8 -5.2
v 12.4 3.8 -6
v 12.4 3.8 -6.1
v 12.4 3.8 -6.2
v 12.4 3.8 -6.5
v 12.4 3.8 -6.6
v 12.4 3.8 -6.7
v 12.4 3.8 -6.8
v 12.4 3.8 -7.3
v 12.4 3.8 -8.5
v 12.4 3.8 -8.6
v 12.4 3.9 -4.8
v 12.4 3.9 -5
v 12.4 3.9 -5.2
v 12.4 3.9 -5.5
v 12.4 3.9 -5.9
v 12.4 3.9 -6
v 12.4 3.9 -6.1
v 12.4 3.9 -6.2
v 12.4 3.9 -6.3
v 12.4 3.9 -6.6
v 12.4 3.9 -6.7
v 12.4 3.9 -8.3
v 12.4 3.9 -8.5
v 12.4 4 -4.1
v 12.4 4 -4.8
v 12.4 4 -5.9
v 12.4 4 -6
v 12.4 4 -6.3
v 12.4 4 -6.5
v 12.4 4 -6.7
v 12.4 4 -6.8
v 12.4 4 -7
v 12.4 4 -8.3
v 12.4 4.1 -6
v 12.4 4.1 -6.1
v 12.4 4.1 -6.2
v 12.4 4.1 -6.7
v 12.4 4.1 -6.8
v 12.4 4.1 -6.9
v 12.4 4.1 -7
v 12.4 4.1 -7.1
v 12.4 4.2 -6.1
v 12.4 4.2 -6.2
v 12.4 4.2 -6.3
v 12.4 4.2 -6.8
v 12.4 4.2 -6.9
v 12.4 4.3 -6.3
v 12.4 4.3 -6.6
v 12.4 4.3 -6.9
v 12.4 4.3 -7
v 12.4 4.3 -7.1
v 12.4 4.4 -6.6
v 12.4 4.4 -6.7
v 12.4 4.4 -6.8
v 12.4 4.4 -6.9
v 12.4 4.4 -7
v 12.4 4.5 -4.4
v 12.4 4.5 -4.9
v 12.4 4.5 -6.7
v 12.4 4.5 -6.8
v 12.4 4.6 -4.1
v 12.4 4.6 -4.4
v 12.4 4.6 -4.9
v 12.4 4.6 -5.1
v 12.4 4.6 -5.3
v 12.4 4.6 -5.5
v 12.4 4.7 -5.1
v 12.4 4.7 -5.3
v 12.4 5.1 -5.2
v 12.4 5.1 -5.5
v 12.4 5.1 -6.9
v 12.4 5.1 -7.1
v 12.4 5.1 -7.3
v 12.4 5.2 -5.5
v 12.4 5.2 -5.8
v 12.4 5.2 -7.3
v 12.4 5.2 -7.4
v 12.4 5.2 -7.7
v 12.4 5.2 -7.9
v 12.4 5.3 -5.2
v 12.4 5.3 -5.4
v 12.4 5.3 -5.8
v 12.4 5.3 -6
v 12.4 5.3 -6.9
v 12.4 5.3 -7.1
v 12.4 5.3 -7.2
v 12.4 5.3 -7.4
v 12.4 5.3 -7.7
v 12.4 5.4 -5.4
v 12.4 5.4 -5.6
v 12.4 5.4 -6
v 12.4 5.4 -6.1
v 12.4 5.4 -6.4
v 12.4 5.4 -6.6
v 12.4 5.4 -7.2
v 12.4 5.4 -7.3
v 12.4 5.4 -7.7
v 12.4 5.4 -7.9
v 12.4 5.5 -4.4
v 12.4 5.5 -4.6
v 12.4 5.5 -5.2
v 12.4 5.5 -5.6
v 12.4 5.5 -5.7
v 12.4 5.5 -5.8
v 12.4 5.5 -6.6
v 12.4 5.5 -6.7
v 12.4 5.5 -7.3
v 12.4 5.5 -7.7
v 12.4 5.6 -5.7
v 12.4 5.6 -5.8
v 12.4 5.6 -6.1
v 12.4 5.6 -6.4
v 12.4 5.6 -6.5
v 12.4 5.7 -4.4
v 12.4 5.7 -4.6
v 12.4 5.7 -5
v 12.4 5.7 -5.4
v 12.4 5.7 -6.2
v 12.4 5.7 -6.4
v 12.4 5.7 -7.9
v 12.4 5.7 -8.1
v 12.4 5.8 -5.4
v 12.4 5.8 -5.5
v 12.4 5.8 -5.8
v 12.4 5.8 -6.5
v 12.4 5.8 -6.7
v 12.4 5.8 -7.3
v 12.4 5.8 -7.5
v 12.4 5.9 -5
v 12.4 5.9 -5.2
v 12.4 5.9 -5.8
v 12.4 5.9 -5.9
v 12.4 5.9 -6.2
v 12.4 5.9 -6.4
v 12.4 5.9 -7
v 12.4 5.9 -7.2
v 12.4 5.9 -7.3
v 12.4 5.9 -7.5
v 12.4 5.9 -7.7
v 12.4 6 -4.8
v 12.4 6 -5
v 12.4 6 -5.2
v 12.4 6 -5.3
v 12.4 6 -5.5
v 12.4 6 -5.6
v 12.4 6 -6.9
v 12.4 6 -7
v 12.4 6 -7.9
v 12.4 6 -8.1
v 12.4 6.1 -4.7
v 12.4 6.1 -4.8
v 12.4 6.1 -4.9
v 12.4 6.1 -5.2
v 12.4 6.1 -5.3
v 12.4 6.1 -5.5
v 12.4 6.1 -5.6
v 12.4 6.1 -5.8
v 12.4 6.1 -5.9
v 12.4 6.1 -6.7
v 12.4 6.1 -6.9
v 12.4 6.1 -7.1
v 12.4 6.1 -7.2
v 12.4 6.1 -7.5
v 12.4 6.2 -5.8
v 12.4 6.2 -5.9
v 12.4 6.2 -6.1
v 12.4 6.2 -6.3
v 12.4 6.2 -7.1
v 12.4 6.2 -7.2
v 12.4 6.2 -7.6
v 12.4 6.2 -7.7
v 12.4 6.3 -4.9
v 12.4 6.3 -5
v 12.4 6.3 -5.2
v 12.4 6.3 -5.5
v 12.4 6.3 -5.6
v 12.4 6.3 -6
v 12.4 6.3 -6.1
v 12.4 6.3 -7.4
v 12.4 6.3 -7.6
v 12.4 6.3 -7.8
v 12.4 6.4 -4.7
v 12.4 6.4 -4.9
v 12.4 6.4 -5
v 12.4 6.4 -5.2
v 12.4 6.4 -5.6
v 12.4 6.4 -5.7
v 12.4 6.4 -7.1
v 12.4 6.4 -7.2
v 12.4 6.4 -7.4
v 12.4 6.4 -7.6
v 12.4 6.5 -5.4
v 12.4 6.5 -5.5
v 12.4 6.5 -5.6
v 12.4 6.5 -5.7
v 12.4 6.5 -5.9
v 12.4 6.5 -6
v 12.4 6.5 -6.3
v 12.4 6.5 -6.7
v 12.4 6.5 -6.9
v 12.4 6.5 -7.7
v 12.4 6.5 -7.8
v 12.4 6.5 -7.9
v 12.4 6.6 -5
v 12.4 6.6 -5.4
v 12.4 6.6 -6.9
v 12.4 6.6 -7.1
v 12.4 6.6 -7.4
v 12.4 6.6 -7.7
v 12.4 6.7 -5.4
v 12.4 6.7 -5.6
v 12.4 6.7 -7.2
v 12.4 6.7 -7.4
v 12.4 6.7 -7.9
v 12.4 6.9 -7.2
v 12.4 6.9 -7.4
v 12.4 7.8 -4.1
v 12.4 7.8 -8.6
v 12.4 7.9 -4
v 12.4 7.9 -8.7
v 12.4 8.4 -3.5
v 12.4 8.4 -9.1
v 12.4 8.8 -3.2
v 12.4 8.8 -9.4
v 12.8 0.2 -3.2
v 12.8 0.2 -9.4
v 12.8 8.8 -3.2
v 12.8 8.8 -9.4
v 12.4 0.2 -3.2
v 12.4 8.8 -3.2
v 12.5 0.2 -3.2
v 12.5 8.8 -3.2
v 12.8 0.2 -3.2
v 12.8 8.8 -3.2
v 12.4 0.2 -9.4
v 12.4 8.8 -9.4
v 12.5 0.2 -9.4
v 12.5 8.8 -9.4
v 12.8 0.2 -9.4
v 12.8 8.8 -9.4
v 12.4 0.2 -3.2
v 12.5 0.2 -3.2
v 12.8 0.2 -3.2
v 12.4 0.2 -9.4
v 12.5 0.2 -9.4
v 12.8 0.2 -9.4
v 12.4 8.8 -3.2
v 12.5 8.8 -3.2
v 12.8 8.8 -3.2
v 12.4 8.8 -9.4
v 12.5 8.8 -9.4
v 12.8 8.8 -9.4

# faces
f 3/12/1 2/12/1 1/12/1
f 4/12/1 2/12/1 3/12/1
f 5/11/1 4/11/1 3/11/1
f 6/11/1 4/11/1 5/11/1
f 7/12/1 6/12/1 5/12/1
f 8/12/1 6/12/1 7/12/1
f 9/8/1 8/8/1 7/8/1
f 10/12/1 6/12/1 8/12/1
f 10/8/1 8/8/1 9/8/1
f 11/8/1 9/8/1 7/8/1
f 12/7/1 10/7/1 9/7/1
f 12/8/1 9/8/1 11/8/1
f 13/8/1 11/8/1 7/8/1
f 14/7/1 12/7/1 11/7/1
f 14/8/1 11/8/1 13/8/1
f 15/8/1 13/8/1 7/8/1
f 16/8/1 13/8/1 15/8/1
f 17/8/1 13/8/1 16/8/1
f 18/7/1 14/7/1 13/7/1
f 18/8/1 13/8/1 17/8/1
f 19/8/1 15/8/1 7/8/1
f 20/7/1 16/7/1 15/7/1
f 20/8/1 15/8/1 19/8/1
f 21/8/1 17/8/1 16/8/1
f 21/7/1 16/7/1 20/7/1
f 22/8/1 17/8/1 21/8/1
f 23/8/1 17/8/1 22/8/1
f 24/8/1 17/8/1 23/8/1
f 25/8/1 17/8/1 24/8/1
f 26/7/1 18/7/1 17/7/1
f 26/8/1 17/8/1 25/8/1
f 27/8/1 19/8/1 7/8/1
f 28/7/1 20/7/1 19/7/1
f 28/8/1 19/8/1 27/8/1
f 28/7/1 21/7/1 20/7/1
f 28/7/1 22/7/1 21/7/1
f 29/8/1 23/8/1 22/8/1
f 29/7/1 22/7/1 28/7/1
f 30/7/1 24/7/1 23/7/1
f 30/8/1 23/8/1 29/8/1
f 31/8/1 25/8/1 24/8/1
f 31/7/1 24/7/1 30/7/1
f 32/7/1 26/7/1 25/7/1
f 32/8/1 25/8/1 31/8/1
f 33/8/1 27/8/1 7/8/1
f 34/7/1 30/7/1 29/7/1
f 34/8/1 27/8/1 33/8/1
f 34/7/1 31/7/1 30/7/1
f 34/7/1 32/7/1 31/7/1
f 34/7/1 28/7/1 27/7/1
f 34/7/1 29/7/1 28/7/1
f 35/12/1 7/12/1 5/12/1
f 35/8/1 33/8/1 7/8/1
f 36/7/1 34/7/1 33/7/1
f 36/8/1 33/8/1 35/8/1
f 37/7/1 32/7/1 34/7/1
f 37/7/1 34/7/1 36/7/1
f 37/7/1 36/7/1 35/7/1
f 37/7/1 10/7/1 12/7/1
f 37/7/1 18/7/1 26/7/1
f 37/7/1 14/7/1 18/7/1
f 37/7/1 26/7/1 32/7/1
f 37/7/1 12/7/1 14/7/1
f 38/12/1 6/12/1 10/12/1
f 38/7/1 10/7/1 37/7/1
f 39/7/1 37/7/1 35/7/1
f 40/3/1 38/3/1 37/3/1
f 40/7/1 37/7/1 39/7/1
f 41/7/1 39/7/1 35/7/1
f 42/3/1 40/3/1 39/3/1
f 42/7/1 39/7/1 41/7/1
f 43/7/1 41/7/1 35/7/1
f 44/3/1 42/3/1 41/3/1
f 44/7/1 41/7/1 43/7/1
f 45/7/1 43/7/1 35/7/1
f 46/3/1 44/3/1 43/3/1
f 46/7/1 43/7/1 45/7/1
f 47/7/1 45/7/1 35/7/1
f 48/3/1 46/3/1 45/3/1
f 48/7/1 45/7/1 47/7/1
f 49/7/1 47/7/1 35/7/1
f 50/3/1 48/3/1 47/3/1
f 50/7/1 47/7/1 49/7/1
f 51/3/1 42/3/1 44/3/1
f 51/3/1 48/3/1 50/3/1
f 51/3/1 44/3/1 46/3/1
f 51/3/1 46/3/1 48/3/1
f 52/12/1 6/12/1 38/12/1
f 52/3/1 42/3/1 51/3/1
f 52/3/1 38/3/1 40/3/1
f 52/3/1 40/3/1 42/3/1
f 53/7/1 49/7/1 35/7/1
f 54/3/1 51/3/1 50/3/1
f 54/7/1 49/7/1 53/7/1
f 54/3/1 50/3/1 49/3/1
f 55/3/1 51/3/1 54/3/1
f 56/3/1 51/3/1 55/3/1
f 57/3/1 51/3/1 56/3/1
f 58/3/1 51/3/1 57/3/1
f 59/3/1 51/3/1 58/3/1
f 60/3/1 51/3/1 59/3/1
f 61/3/1 51/3/1 60/3/1
f 62/7/1 52/7/1 51/7/1
f 62/3/1 51/3/1 61/3/1
f 63/7/1 53/7/1 35/7/1
f 64/3/1 54/3/1 53/3/1
f 64/7/1 53/7/1 63/7/1
f 64/3/1 55/3/1 54/3/1
f 65/3/1 55/3/1 64/3/1
f 66/13/1 56/13/1 55/13/1
f 66/3/1 55/3/1 65/3/1
f 67/3/1 57/3/1 56/3/1
f 67/13/1 56/13/1 66/13/1
f 68/3/1 57/3/1 67/3/1
f 69/13/1 58/13/1 57/13/1
f 69/3/1 57/3/1 68/3/1
f 70/3/1 59/3/1 58/3/1
f 70/13/1 58/13/1 69/13/1
f 71/13/1 60/13/1 59/13/1
f 71/3/1 59/3/1 70/3/1
f 72/3/1 61/3/1 60/3/1
f 72/13/1 60/13/1 71/13/1
f 73/7/1 62/7/1 61/7/1
f 73/3/1 61/3/1 72/3/1
f 74/7/1 52/7/1 62/7/1
f 74/7/1 62/7/1 73/7/1
f 75/12/1 6/12/1 52/12/1
f 75/7/1 52/7/1 74/7/1
f 76/7/1 63/7/1 35/7/1
f 77/6/1 65/6/1 64/6/1
f 77/7/1 63/7/1 76/7/1
f 77/6/1 64/6/1 63/6/1
f 78/3/1 66/3/1 65/3/1
f 78/6/1 65/6/1 77/6/1
f 79/3/1 66/3/1 78/3/1
f 80/3/1 66/3/1 79/3/1
f 81/7/1 67/7/1 66/7/1
f 81/3/1 66/3/1 80/3/1
f 82/4/1 68/4/1 67/4/1
f 82/7/1 67/7/1 81/7/1
f 83/7/1 69/7/1 68/7/1
f 83/4/1 68/4/1 82/4/1
f 84/7/1 69/7/1 83/7/1
f 85/7/1 71/7/1 70/7/1
f 85/4/1 70/4/1 69/4/1
f 86/4/1 72/4/1 71/4/1
f 86/7/1 71/7/1 85/7/1
f 87/7/1 73/7/1 72/7/1
f 87/7/1 74/7/1 73/7/1
f 88/9/1 75/9/1 74/9/1
f 88/7/1 74/7/1 87/7/1
f 89/12/1 35/12/1 5/12/1
f 89/7/1 76/7/1 35/7/1
f 90/6/1 77/6/1 76/6/1
f 90/7/1 76/7/1 89/7/1
f 90/6/1 78/6/1 77/6/1
f 90/6/1 79/6/1 78/6/1
f 91/7/1 81/7/1 80/7/1
f 91/9/1 80/9/1 79/9/1
f 92/1/1 82/1/1 81/1/1
f 92/7/1 81/7/1 91/7/1
f 93/7/1 69/7/1 84/7/1
f 93/4/1 84/4/1 83/4/1
f 93/4/1 83/4/1 82/4/1
f 94/4/1 86/4/1 85/4/1
f 94/7/1 69/7/1 93/7/1
f 94/4/1 85/4/1 69/4/1
f 95/4/1 72/4/1 86/4/1
f 95/4/1 86/4/1 94/4/1
f 96/7/1 87/7/1 72/7/1
f 96/4/1 72/4/1 95/4/1
f 97/7/1 87/7/1 96/7/1
f 98/9/1 88/9/1 87/9/1
f 98/7/1 87/7/1 97/7/1
f 99/1/1 82/1/1 92/1/1
f 99/9/1 92/9/1 91/9/1
f 100/4/1 94/4/1 93/4/1
f 100/1/1 82/1/1 99/1/1
f 100/4/1 93/4/1 82/4/1
f 100/4/1 95/4/1 94/4/1
f 101/4/1 95/4/1 100/4/1
f 102/7/1 96/7/1 95/7/1
f 102/4/1 95/4/1 101/4/1
f 102/7/1 97/7/1 96/7/1
f 103/7/1 97/7/1 102/7/1
f 104/7/1 97/7/1 103/7/1
f 105/9/1 98/9/1 97/9/1
f 105/7/1 97/7/1 104/7/1
f 106/9/1 98/9/1 105/9/1
f 107/1/1 101/1/1 100/1/1
f 107/9/1 100/9/1 99/9/1
f 108/4/1 102/4/1 101/4/1
f 108/1/1 101/1/1 107/1/1
f 108/4/1 103/4/1 102/4/1
f 109/4/1 103/4/1 108/4/1
f 110/9/1 104/9/1 103/9/1
f 110/4/1 103/4/1 109/4/1
f 111/4/1 106/4/1 105/4/1
f 111/9/1 104/9/1 110/9/1
f 111/4/1 105/4/1 104/4/1
f 112/4/1 110/4/1 109/4/1
f 112/9/1 109/9/1 108/9/1
f 112/4/1 111/4/1 110/4/1
f 112/9/1 108/9/1 107/9/1
f 113/4/1 111/4/1 112/4/1
f 114/4/1 106/4/1 111/4/1
f 114/4/1 111/4/1 113/4/1
f 115/4/1 106/4/1 114/4/1
f 116/9/1 98/9/1 106/9/1
f 116/4/1 106/4/1 115/4/1
f 117/9/1 113/9/1 112/9/1
f 117/1/1 114/1/1 113/1/1
f 118/1/1 114/1/1 117/1/1
f 119/1/1 114/1/1 118/1/1
f 120/4/1 115/4/1 114/4/1
f 120/1/1 114/1/1 119/1/1
f 121/9/1 116/9/1 115/9/1
f 121/4/1 115/4/1 120/4/1
f 122/6/1 90/6/1 89/6/1
f 123/6/1 79/6/1 90/6/1
f 123/6/1 90/6/1 122/6/1
f 124/1/1 119/1/1 118/1/1
f 124/9/1 118/9/1 117/9/1
f 125/9/1 120/9/1 119/9/1
f 125/1/1 119/1/1 124/1/1
f 125/9/1 121/9/1 120/9/1
f 126/12/1 89/12/1 5/12/1
f 126/6/1 122/6/1 89/6/1
f 127/9/1 123/9/1 122/9/1
f 127/6/1 122/6/1 126/6/1
f 128/6/1 79/6/1 123/6/1
f 128/9/1 123/9/1 127/9/1
f 129/6/1 79/6/1 128/6/1
f 130/6/1 79/6/1 129/6/1
f 131/9/1 99/9/1 91/9/1
f 131/6/1 79/6/1 130/6/1
f 131/9/1 125/9/1 124/9/1
f 131/9/1 91/9/1 79/9/1
f 131/9/1 107/9/1 99/9/1
f 131/9/1 112/9/1 107/9/1
f 131/9/1 117/9/1 112/9/1
f 131/9/1 124/9/1 117/9/1
f 132/6/1 130/6/1 129/6/1
f 132/9/1 127/9/1 126/9/1
f 132/9/1 129/9/1 128/9/1
f 132/9/1 128/9/1 127/9/1
f 133/9/1 131/9/1 130/9/1
f 133/6/1 130/6/1 132/6/1
f 134/9/1 133/9/1 132/9/1
f 135/9/1 125/9/1 131/9/1
f 135/9/1 133/9/1 134/9/1
f 135/9/1 131/9/1 133/9/1
f 136/9/1 121/9/1 125/9/1
f 136/9/1 125/9/1 135/9/1
f 137/9/1 116/9/1 121/9/1
f 137/9/1 121/9/1 136/9/1
f 137/9/1 98/9/1 116/9/1
f 138/9/1 98/9/1 137/9/1
f 139/9/1 136/9/1 135/9/1
f 139/2/1 135/2/1 134/2/1
f 140/9/1 136/9/1 139/9/1
f 141/9/1 98/9/1 138/9/1
f 141/10/1 138/10/1 137/10/1
f 142/9/1 98/9/1 141/9/1
f 143/9/1 98/9/1 142/9/1
f 144/9/1 98/9/1 143/9/1
f 145/9/1 134/9/1 132/9/1
f 145/2/1 140/2/1 139/2/1
f 145/2/1 139/2/1 134/2/1
f 146/2/1 140/2/1 145/2/1
f 147/9/1 136/9/1 140/9/1
f 147/2/1 140/2/1 146/2/1
f 148/9/1 136/9/1 147/9/1
f 149/2/1 137/2/1 136/2/1
f 149/9/1 136/9/1 148/9/1
f 150/10/1 141/10/1 137/10/1
f 150/2/1 137/2/1 149/2/1
f 150/10/1 142/10/1 141/10/1
f 151/10/1 142/10/1 150/10/1
f 152/9/1 143/9/1 142/9/1
f 152/10/1 142/10/1 151/10/1
f 153/2/1 144/2/1 143/2/1
f 153/9/1 143/9/1 152/9/1
f 154/10/1 146/10/1 145/10/1
f 154/2/1 148/2/1 147/2/1
f 154/2/1 147/2/1 146/2/1
f 155/2/1 148/2/1 154/2/1
f 156/9/1 151/9/1 150/9/1
f 156/2/1 148/2/1 155/2/1
f 156/9/1 149/9/1 148/9/1
f 156/9/1 150/9/1 149/9/1
f 157/9/1 151/9/1 156/9/1
f 158/9/1 151/9/1 157/9/1
f 159/9/1 151/9/1 158/9/1
f 160/10/1 152/10/1 151/10/1
f 160/9/1 151/9/1 159/9/1
f 160/10/1 153/10/1 152/10/1
f 161/10/1 153/10/1 160/10/1
f 162/2/1 144/2/1 153/2/1
f 162/10/1 153/10/1 161/10/1
f 163/9/1 98/9/1 144/9/1
f 163/2/1 144/2/1 162/2/1
f 164/9/1 132/9/1 126/9/1
f 164/9/1 145/9/1 132/9/1
f 165/9/1 145/9/1 164/9/1
f 166/10/1 155/10/1 154/10/1
f 166/9/1 145/9/1 165/9/1
f 166/10/1 154/10/1 145/10/1
f 167/2/1 156/2/1 155/2/1
f 167/10/1 155/10/1 166/10/1
f 167/2/1 157/2/1 156/2/1
f 168/2/1 157/2/1 167/2/1
f 169/2/1 157/2/1 168/2/1
f 170/9/1 161/9/1 160/9/1
f 170/10/1 159/10/1 158/10/1
f 170/9/1 160/9/1 159/9/1
f 171/9/1 161/9/1 170/9/1
f 172/10/1 162/10/1 161/10/1
f 172/9/1 161/9/1 171/9/1
f 173/9/1 163/9/1 162/9/1
f 173/10/1 162/10/1 172/10/1
f 174/10/1 169/10/1 168/10/1
f 174/9/1 166/9/1 165/9/1
f 174/9/1 168/9/1 167/9/1
f 174/9/1 167/9/1 166/9/1
f 175/2/1 157/2/1 169/2/1
f 175/10/1 169/10/1 174/10/1
f 176/9/1 158/9/1 157/9/1
f 176/2/1 157/2/1 175/2/1
f 177/10/1 171/10/1 170/10/1
f 177/9/1 158/9/1 176/9/1
f 177/10/1 170/10/1 158/10/1
f 178/10/1 171/10/1 177/10/1
f 179/2/1 165/2/1 164/2/1
f 179/9/1 164/9/1 126/9/1
f 180/9/1 176/9/1 175/9/1
f 180/2/1 165/2/1 179/2/1
f 180/9/1 174/9/1 165/9/1
f 180/9/1 177/9/1 176/9/1
f 180/9/1 175/9/1 174/9/1
f 180/9/1 178/9/1 177/9/1
f 181/9/1 178/9/1 180/9/1
f 182/9/1 178/9/1 181/9/1
f 183/9/1 178/9/1 182/9/1
f 184/9/1 178/9/1 183/9/1
f 185/9/1 98/9/1 163/9/1
f 185/9/1 173/9/1 172/9/1
f 185/9/1 163/9/1 173/9/1
f 185/9/1 172/9/1 171/9/1
f 186/9/1 98/9/1 185/9/1
f 187/9/1 183/9/1 182/9/1
f 187/10/1 182/10/1 181/10/1
f 188/9/1 183/9/1 187/9/1
f 189/9/1 183/9/1 188/9/1
f 190/9/1 178/9/1 184/9/1
f 190/10/1 171/10/1 178/10/1
f 191/9/1 185/9/1 171/9/1
f 191/10/1 171/10/1 190/10/1
f 192/9/1 185/9/1 191/9/1
f 193/9/1 185/9/1 192/9/1
f 194/9/1 180/9/1 179/9/1
f 194/9/1 181/9/1 180/9/1
f 194/10/1 187/10/1 181/10/1
f 194/10/1 188/10/1 187/10/1
f 195/10/1 188/10/1 194/10/1
f 196/9/1 183/9/1 189/9/1
f 196/2/1 189/2/1 188/2/1
f 197/9/1 183/9/1 196/9/1
f 198/2/1 184/2/1 183/2/1
f 198/9/1 183/9/1 197/9/1
f 199/9/1 190/9/1 184/9/1
f 199/2/1 184/2/1 198/2/1
f 199/9/1 192/9/1 191/9/1
f 199/9/1 191/9/1 190/9/1
f 200/9/1 192/9/1 199/9/1
f 201/9/1 192/9/1 200/9/1
f 202/2/1 193/2/1 192/2/1
f 202/9/1 192/9/1 201/9/1
f 203/9/1 185/9/1 193/9/1
f 203/2/1 193/2/1 202/2/1
f 204/9/1 185/9/1 203/9/1
f 205/9/1 195/9/1 194/9/1
f 205/9/1 194/9/1 179/9/1
f 206/9/1 195/9/1 205/9/1
f 207/10/1 188/10/1 195/10/1
f 207/9/1 195/9/1 206/9/1
f 208/10/1 188/10/1 207/10/1
f 209/2/1 197/2/1 196/2/1
f 209/10/1 188/10/1 208/10/1
f 209/2/1 196/2/1 188/2/1
f 210/2/1 197/2/1 209/2/1
f 211/9/1 198/9/1 197/9/1
f 211/9/1 199/9/1 198/9/1
f 211/9/1 200/9/1 199/9/1
f 212/10/1 201/10/1 200/10/1
f 212/9/1 200/9/1 211/9/1
f 213/10/1 186/10/1 185/10/1
f 213/9/1 185/9/1 204/9/1
f 214/9/1 98/9/1 186/9/1
f 214/10/1 186/10/1 213/10/1
f 215/9/1 205/9/1 179/9/1
f 216/10/1 206/10/1 205/10/1
f 216/9/1 205/9/1 215/9/1
f 217/10/1 206/10/1 216/10/1
f 218/9/1 208/9/1 207/9/1
f 218/9/1 207/9/1 206/9/1
f 219/10/1 210/10/1 209/10/1
f 219/9/1 208/9/1 218/9/1
f 219/10/1 209/10/1 208/10/1
f 220/10/1 210/10/1 219/10/1
f 221/2/1 197/2/1 210/2/1
f 221/10/1 210/10/1 220/10/1
f 222/2/1 197/2/1 221/2/1
f 223/9/1 211/9/1 197/9/1
f 223/2/1 197/2/1 222/2/1
f 224/9/1 211/9/1 223/9/1
f 225/10/1 212/10/1 211/10/1
f 225/9/1 211/9/1 224/9/1
f 226/10/1 201/10/1 212/10/1
f 226/10/1 212/10/1 225/10/1
f 227/2/1 202/2/1 201/2/1
f 227/10/1 201/10/1 226/10/1
f 227/2/1 203/2/1 202/2/1
f 228/10/1 204/10/1 203/10/1
f 228/2/1 203/2/1 227/2/1
f 229/9/1 224/9/1 223/9/1
f 229/10/1 222/10/1 221/10/1
f 229/9/1 223/9/1 222/9/1
f 229/10/1 221/10/1 220/10/1
f 230/9/1 224/9/1 229/9/1
f 231/9/1 224/9/1 230/9/1
f 232/9/1 224/9/1 231/9/1
f 233/2/1 226/2/1 225/2/1
f 233/10/1 228/10/1 227/10/1
f 233/10/1 227/10/1 226/10/1
f 234/10/1 228/10/1 233/10/1
f 235/10/1 204/10/1 228/10/1
f 235/10/1 228/10/1 234/10/1
f 236/9/1 213/9/1 204/9/1
f 236/10/1 204/10/1 235/10/1
f 236/9/1 214/9/1 213/9/1
f 237/10/1 206/10/1 217/10/1
f 237/2/1 217/2/1 216/2/1
f 237/2/1 216/2/1 215/2/1
f 238/9/1 218/9/1 206/9/1
f 238/10/1 206/10/1 237/10/1
f 239/2/1 220/2/1 219/2/1
f 239/9/1 218/9/1 238/9/1
f 239/2/1 219/2/1 218/2/1
f 240/10/1 230/10/1 229/10/1
f 240/2/1 220/2/1 239/2/1
f 240/10/1 229/10/1 220/10/1
f 241/10/1 230/10/1 240/10/1
f 242/9/1 231/9/1 230/9/1
f 243/10/1 232/10/1 231/10/1
f 243/9/1 231/9/1 242/9/1
f 244/10/1 235/10/1 234/10/1
f 245/9/1 236/9/1 235/9/1
f 245/10/1 235/10/1 244/10/1
f 246/9/1 214/9/1 236/9/1
f 246/9/1 236/9/1 245/9/1
f 247/9/1 215/9/1 179/9/1
f 247/2/1 237/2/1 215/2/1
f 248/9/1 238/9/1 237/9/1
f 248/2/1 237/2/1 247/2/1
f 248/9/1 239/9/1 238/9/1
f 249/9/1 239/9/1 248/9/1
f 250/10/1 240/10/1 239/10/1
f 250/9/1 239/9/1 249/9/1
f 251/10/1 230/10/1 241/10/1
f 251/9/1 241/9/1 240/9/1
f 252/10/1 230/10/1 251/10/1
f 253/2/1 234/2/1 233/2/1
f 253/2/1 233/2/1 225/2/1
f 254/10/1 244/10/1 234/10/1
f 254/2/1 234/2/1 253/2/1
f 255/9/1 245/9/1 244/9/1
f 255/10/1 244/10/1 254/10/1
f 256/2/1 246/2/1 245/2/1
f 256/9/1 245/9/1 255/9/1
f 257/10/1 240/10/1 250/10/1
f 257/10/1 250/10/1 249/10/1
f 258/9/1 252/9/1 251/9/1
f 258/10/1 240/10/1 257/10/1
f 258/9/1 251/9/1 240/9/1
f 259/9/1 252/9/1 258/9/1
f 260/10/1 230/10/1 252/10/1
f 260/9/1 252/9/1 259/9/1
f 261/9/1 242/9/1 230/9/1
f 261/10/1 230/10/1 260/10/1
f 262/10/1 243/10/1 242/10/1
f 262/9/1 242/9/1 261/9/1
f 263/10/1 232/10/1 243/10/1
f 263/10/1 243/10/1 262/10/1
f 263/9/1 224/9/1 232/9/1
f 264/10/1 225/10/1 224/10/1
f 264/9/1 224/9/1 263/9/1
f 265/2/1 253/2/1 225/2/1
f 265/10/1 225/10/1 264/10/1
f 266/2/1 246/2/1 256/2/1
f 266/2/1 256/2/1 255/2/1
f 267/9/1 214/9/1 246/9/1
f 267/2/1 246/2/1 266/2/1
f 268/9/1 214/9/1 267/9/1
f 269/10/1 257/10/1 249/10/1
f 269/9/1 249/9/1 248/9/1
f 269/9/1 248/9/1 247/9/1
f 270/2/1 259/2/1 258/2/1
f 270/10/1 257/10/1 269/10/1
f 270/2/1 258/2/1 257/2/1
f 271/9/1 262/9/1 261/9/1
f 271/9/1 263/9/1 262/9/1
f 271/9/1 260/9/1 259/9/1
f 271/9/1 265/9/1 264/9/1
f 271/9/1 264/9/1 263/9/1
f 271/2/1 253/2/1 265/2/1
f 271/9/1 261/9/1 260/9/1
f 272/9/1 254/9/1 253/9/1
f 272/2/1 253/2/1 271/2/1
f 273/2/1 266/2/1 255/2/1
f 273/10/1 255/10/1 254/10/1
f 274/10/1 267/10/1 266/10/1
f 274/2/1 266/2/1 273/2/1
f 274/10/1 268/10/1 267/10/1
f 275/2/1 259/2/1 270/2/1
f 275/9/1 270/9/1 269/9/1
f 276/9/1 271/9/1 259/9/1
f 276/2/1 259/2/1 275/2/1
f 276/9/1 272/9/1 271/9/1
f 277/9/1 254/9/1 272/9/1
f 277/9/1 272/9/1 276/9/1
f 277/10/1 274/10/1 273/10/1
f 277/10/1 273/10/1 254/10/1
f 278/10/1 274/10/1 277/10/1
f 279/10/1 268/10/1 274/10/1
f 279/10/1 274/10/1 278/10/1
f 279/9/1 214/9/1 268/9/1
f 280/9/1 276/9/1 275/9/1
f 280/2/1 278/2/1 277/2/1
f 280/9/1 277/9/1 276/9/1
f 281/9/1 279/9/1 278/9/1
f 281/2/1 278/2/1 280/2/1
f 282/9/1 179/9/1 126/9/1
f 282/9/1 275/9/1 269/9/1
f 282/9/1 281/9/1 280/9/1
f 282/9/1 247/9/1 179/9/1
f 282/9/1 269/9/1 247/9/1
f 282/12/1 126/12/1 5/12/1
f 282/9/1 280/9/1 275/9/1
f 283/9/1 75/9/1 88/9/1
f 283/9/1 281/9/1 282/9/1
f 283/9/1 279/9/1 281/9/1
f 283/9/1 98/9/1 214/9/1
f 283/12/1 6/12/1 75/12/1
f 283/9/1 88/9/1 98/9/1
f 283/9/1 214/9/1 279/9/1
f 284/11/1 5/11/1 3/11/1
f 284/12/1 282/12/1 5/12/1
f 284/12/1 283/12/1 282/12/1
f 285/12/1 6/12/1 283/12/1
f 285/12/1 283/12/1 284/12/1
f 285/11/1 4/11/1 6/11/1
f 286/12/1 3/12/1 1/12/1
f 286/11/1 284/11/1 3/11/1
f 286/11/1 285/11/1 284/11/1
f 287/11/1 4/11/1 285/11/1
f 287/11/1 285/11/1 286/11/1
f 287/12/1 2/12/1 4/12/1
f 288/12/1 286/12/1 1/12/1
f 288/12/1 287/12/1 286/12/1
f 289/12/1 2/12/1 287/12/1
f 289/12/1 287/12/1 288/12/1
f 290/5/2 291/5/2 292/5/2
f 292/5/2 291/5/2 293/5/2
f 296/12/3 295/12/3 294/12/3
f 297/12/3 295/12/3 296/12/3
f 298/5/3 297/5/3 296/5/3
f 299/5/3 297/5/3 298/5/3
f 300/12/4 301/12/4 302/12/4
f 302/12/4 301/12/4 303/12/4
f 302/5/4 303/5/4 304/5/4
f 304/5/4 303/5/4 305/5/4
f 309/12/5 307/12/5 306/12/5
f 310/5/5 308/5/5 307/5/5
f 310/12/5 307/12/5 309/12/5
f 311/5/5 308/5/5 310/5/5
f 312/12/6 313/12/6 315/12/6
f 313/5/6 314/5/6 316/5/6
f 315/12/6 313/12/6 316/12/6
f 316/5/6 314/5/6 317/5/6
